<svg width="24" height="24" viewBox="0 0 24 24" fill="none" xmlns="http://www.w3.org/2000/svg">
<path fill-rule="evenodd" clip-rule="evenodd" d="M16.0109 2.25072C14.5981 2.23028 13.1283 2.6447 11.9984 3.81005C10.86 2.64677 9.37536 2.25064 8 2.25064C4.62678 2.25064 1.25 5.04651 1.25 9.00042C1.25 12.8221 3.69523 16.0102 6.12492 18.1841C7.35323 19.283 8.61308 20.1555 9.63583 20.7561C10.1469 21.0563 10.6068 21.2933 10.9812 21.458C11.1677 21.5401 11.3419 21.6081 11.4962 21.657C11.6316 21.7 11.8167 21.75 12 21.75C12.1833 21.75 12.3684 21.7 12.5038 21.657C12.6581 21.6081 12.8323 21.5401 13.0188 21.458C13.3932 21.2933 13.8531 21.0563 14.3642 20.7561C15.3869 20.1555 16.6468 19.283 17.8751 18.1841C20.3048 16.0102 22.75 12.8221 22.75 9.00042C22.75 5.03776 19.3659 2.29926 16.0109 2.25072Z" />
</svg>
