<svg width="25" height="24" viewBox="0 0 25 24" fill="none" xmlns="http://www.w3.org/2000/svg">
<path d="M20.94 6.82L15.18 2.79C13.61 1.69 11.2 1.75 9.68998 2.92L4.67998 6.83C3.67998 7.61 2.88998 9.21 2.88998 10.47V17.37C2.88998 19.92 4.95998 22 7.50998 22H18.29C20.84 22 22.91 19.93 22.91 17.38V10.6C22.91 9.25 22.04 7.59 20.94 6.82ZM13.65 18C13.65 18.41 13.31 18.75 12.9 18.75C12.49 18.75 12.15 18.41 12.15 18V15C12.15 14.59 12.49 14.25 12.9 14.25C13.31 14.25 13.65 14.59 13.65 15V18Z" fill="#0E6FFC"/>
</svg>
