<svg width="24" height="24" viewBox="0 0 24 24" fill="none" xmlns="http://www.w3.org/2000/svg">
<path fill-rule="evenodd" clip-rule="evenodd" d="M7.28685 5.40544C7.20545 5.42184 7.12576 5.43997 7.04731 5.46001C4.8198 6.02902 3.03507 7.69266 2.31123 9.87478C2.04377 10.6811 1.97652 11.6388 1.86295 13.256L1.8538 13.3863L1.8432 13.5368C1.71417 15.3693 1.63794 16.4521 1.8257 17.3629C2.33546 19.8356 4.18258 21.8172 6.6135 22.4991C7.50889 22.7503 8.59429 22.7502 10.4314 22.75L10.5822 22.75H13.4177L13.5686 22.75C15.4057 22.7502 16.4911 22.7503 17.3865 22.4991C19.8174 21.8172 21.6645 19.8356 22.1743 17.3629C22.3621 16.4521 22.2858 15.3693 22.1568 13.5368V13.5368L22.1462 13.3863L22.137 13.256V13.2559C22.0235 11.6388 21.9562 10.6811 21.6888 9.87478C20.9649 7.69266 19.1802 6.02902 16.9527 5.46001C16.8742 5.43997 16.7945 5.42184 16.7131 5.40544C16.4206 3.06271 14.422 1.25 12 1.25C9.578 1.25 7.57939 3.06271 7.28685 5.40544ZM8.83413 5.26209C9.16831 3.82265 10.4589 2.75 12 2.75C13.5411 2.75 14.8317 3.82265 15.1659 5.26209C14.7057 5.24989 14.1767 5.24994 13.5484 5.24999L13.4177 5.25H10.5822L10.4516 5.24999C9.82332 5.24994 9.29433 5.24989 8.83413 5.26209Z"/>
</svg>
