<svg width="24" height="24" viewBox="0 0 24 24" fill="none" xmlns="http://www.w3.org/2000/svg">
<path fill-rule="evenodd" clip-rule="evenodd" d="M11.8263 1.25001L12 1.25003L12.1738 1.25001C14.3393 1.24975 15.6239 1.2496 16.7072 1.62849C18.4117 2.22464 19.8063 3.47889 20.5792 5.11085C21.0704 6.14807 21.206 7.42549 21.4345 9.57895L21.4529 9.75171L21.6893 11.9768L21.6924 12.0062L21.6924 12.0064L21.6925 12.0066C21.8519 13.507 21.9757 14.6728 22.0088 15.6135C22.0422 16.5663 21.9862 17.3499 21.752 18.0749C21.1623 19.9004 19.8237 21.3888 18.0706 22.1681C17.3744 22.4775 16.6012 22.6161 15.6502 22.6835C14.7111 22.75 13.5387 22.75 12.0297 22.75H12H11.9704C10.4614 22.75 9.28892 22.75 8.34988 22.6835C7.39888 22.6161 6.62562 22.4775 5.92944 22.1681C4.17641 21.3888 2.83779 19.9004 2.2481 18.0749C2.01391 17.3499 1.95783 16.5663 1.99129 15.6135C2.02434 14.6727 2.14821 13.5068 2.30765 12.0062L2.31078 11.9768L2.54719 9.75171L2.56554 9.57896C2.79408 7.42549 2.92965 6.14807 3.42088 5.11085C4.19378 3.47889 5.58835 2.22464 7.29285 1.62849C8.37616 1.2496 9.66075 1.24975 11.8263 1.25001ZM9.75016 9.00003C9.75016 10.2427 10.7575 11.25 12.0002 11.25C13.2428 11.25 14.2502 10.2427 14.2502 9.00003V7.00003C14.2502 6.58581 14.5859 6.25003 15.0002 6.25003C15.4144 6.25003 15.7502 6.58581 15.7502 7.00003V9.00003C15.7502 11.0711 14.0712 12.75 12.0002 12.75C9.92909 12.75 8.25016 11.0711 8.25016 9.00003V7.00003C8.25016 6.58581 8.58595 6.25003 9.00016 6.25003C9.41437 6.25003 9.75016 6.58581 9.75016 7.00003V9.00003Z"/>
</svg>
