<svg width="24" height="24" viewBox="0 0 24 24" fill="none" xmlns="http://www.w3.org/2000/svg">
<path fill-rule="evenodd" clip-rule="evenodd" d="M8.25 6L8.25 2.25H5C2.92893 2.25 1.25 3.92893 1.25 6V8.74286C1.25 9.29909 1.70091 9.75 2.25714 9.75C3.35777 9.75 4.25 10.6422 4.25 11.7429V12.2571C4.25 13.3578 3.35777 14.25 2.25714 14.25C1.70091 14.25 1.25 14.7009 1.25 15.2571V18C1.25 20.0711 2.92893 21.75 5 21.75H8.25L8.25 18C8.25 17.5858 8.58579 17.25 9 17.25C9.41421 17.25 9.75 17.5858 9.75 18V21.75H19C21.0711 21.75 22.75 20.0711 22.75 18V15.2571C22.75 14.7009 22.2991 14.25 21.7429 14.25C20.6422 14.25 19.75 13.3578 19.75 12.2571V11.7429C19.75 10.6422 20.6422 9.75 21.7429 9.75C22.2991 9.75 22.75 9.29909 22.75 8.74286V6C22.75 3.92893 21.0711 2.25 19 2.25H9.75V6C9.75 6.41421 9.41421 6.75 9 6.75C8.58579 6.75 8.25 6.41421 8.25 6ZM9.75 10C9.75 9.58579 9.41421 9.25 9 9.25C8.58579 9.25 8.25 9.58579 8.25 10V14C8.25 14.4142 8.58579 14.75 9 14.75C9.41421 14.75 9.75 14.4142 9.75 14V10Z"/>
</svg>
